<?xml version="1.0" encoding="utf-8"?>
<!-- Generator: Adobe Illustrator 24.3.0, SVG Export Plug-In . SVG Version: 6.00 Build 0)  -->
<svg version="1.1" id="Warstwa_1" xmlns="http://www.w3.org/2000/svg" xmlns:xlink="http://www.w3.org/1999/xlink" x="0px" y="0px"
	 viewBox="0 0 841.89 595.28" style="enable-background:new 0 0 841.89 595.28;" xml:space="preserve">
<style type="text/css">
	.st0{fill:url(#SVGID_1_);}
	.st1{fill:#58595B;}
</style>
<linearGradient id="SVGID_1_" gradientUnits="userSpaceOnUse" x1="281.2329" y1="264.0477" x2="181.2881" y2="373.1711">
	<stop  offset="0.4322" style="stop-color:#F8AF2B"/>
	<stop  offset="0.9391" style="stop-color:#FD9827"/>
</linearGradient>
<path class="st0" d="M249.82,324.68C249.82,324.68,249.82,324.68,249.82,324.68l-11.77,0.01c0,0,0,0,0,0c-2.71,0-5.57,0-8.56,0.01
	l-0.05,0v0c-8.34,0.01-17.72,0.01-27.96,0.01c2.45-4.24,26.87-46.83,29.37-51.16l17.82,30.54h-22.99l-5.56,9.91h46.5
	c-3.15-5.45-33.76-57.37-35.77-60.85c-0.06,0.11-46.06,80.04-47.04,81.75c30.07,0,49.78-0.07,82.4-0.06l5.89,10.2
	c0,0-76.42,0.04-106.42,0.06l59.92-104.05l-5.54-10.73l-66.11,114.78c-0.01,0-0.03,0-0.04,0l-1.18,1.77l-4.87,8.43
	c10.9,0,134.46-0.06,141.9-0.06c-2.11-3.65-15.59-27.01-17.66-30.6C272.1,324.65,264.01,324.67,249.82,324.68z"/>
<g>
	<path class="st1" d="M313.15,314.17h15.87v10.87h-30.08v-51.1h14.21V314.17z"/>
	<path class="st1" d="M373.17,307.58h-26.89c0.15,2.22,0.76,3.88,1.85,4.96c1.09,1.09,2.48,1.63,4.17,1.63
		c2.37,0,4.06-1.06,5.07-3.19h15.15c-0.63,2.8-1.85,5.3-3.66,7.5c-1.81,2.2-4.1,3.93-6.85,5.18c-2.75,1.26-5.8,1.88-9.13,1.88
		c-4.01,0-7.57-0.85-10.69-2.54s-5.56-4.11-7.32-7.25c-1.76-3.14-2.65-6.84-2.65-11.09c0-4.25,0.87-7.94,2.61-11.05
		c1.74-3.12,4.17-5.52,7.28-7.21c3.12-1.69,6.7-2.54,10.76-2.54c4.01,0,7.56,0.82,10.65,2.46c3.09,1.64,5.51,4,7.25,7.07
		c1.74,3.07,2.61,6.68,2.61,10.84C373.39,305.36,373.31,306.47,373.17,307.58z M358.89,300.69c0-1.74-0.58-3.1-1.74-4.1
		c-1.16-0.99-2.61-1.49-4.35-1.49c-1.74,0-3.17,0.47-4.28,1.41c-1.11,0.94-1.84,2.33-2.17,4.17H358.89z"/>
	<path class="st1" d="M379.15,293.66c1.52-3.14,3.6-5.56,6.23-7.25c2.63-1.69,5.57-2.54,8.81-2.54c2.8,0,5.22,0.56,7.25,1.67
		c2.03,1.11,3.6,2.61,4.71,4.49v-5.65h14.21v40.66h-14.21v-5.65c-1.11,1.88-2.69,3.38-4.75,4.49c-2.05,1.11-4.46,1.67-7.21,1.67
		c-3.24,0-6.17-0.85-8.81-2.54c-2.63-1.69-4.71-4.12-6.23-7.28c-1.52-3.16-2.28-6.85-2.28-11.05S377.63,296.8,379.15,293.66z
		 M404.01,298.52c-1.43-1.5-3.18-2.25-5.25-2.25c-2.13,0-3.89,0.74-5.29,2.21c-1.4,1.48-2.1,3.54-2.1,6.2c0,2.61,0.7,4.67,2.1,6.2
		c1.4,1.52,3.16,2.28,5.29,2.28c2.08,0,3.83-0.75,5.25-2.25c1.42-1.5,2.14-3.58,2.14-6.23
		C406.15,302.07,405.43,300.02,404.01,298.52z"/>
	<path class="st1" d="M466.23,288.7c2.75,3.12,4.13,7.33,4.13,12.65v23.7h-14.21v-21.82c0-2.32-0.6-4.14-1.81-5.47
		c-1.21-1.33-2.83-1.99-4.86-1.99c-2.13,0-3.79,0.67-5,1.99c-1.21,1.33-1.81,3.15-1.81,5.47v21.82h-14.21v-40.66h14.21v5.8
		c1.26-1.84,2.95-3.32,5.07-4.46c2.12-1.13,4.57-1.7,7.32-1.7C459.76,284.02,463.48,285.58,466.23,288.7z"/>
	<path class="st1" d="M492.4,285.33v8.34h16.31v10.8H492.4v9.2h18.48v11.38h-32.69v-51.1h32.69v11.38H492.4z"/>
	<path class="st1" d="M539.87,296.2h-6.38v28.85h-14.28V296.2h-4.42v-11.81h4.42v-0.36c0-5.22,1.53-9.22,4.6-12
		c3.07-2.78,7.48-4.17,13.23-4.17c1.16,0,2.05,0.02,2.68,0.07v12.1c-0.39-0.05-0.92-0.07-1.59-0.07c-1.55,0-2.68,0.35-3.41,1.05
		c-0.72,0.7-1.14,1.82-1.23,3.37h6.38V296.2z"/>
	<path class="st1" d="M566.91,296.2h-6.38v28.85h-14.28V296.2h-4.42v-11.81h4.42v-0.36c0-5.22,1.53-9.22,4.6-12
		c3.07-2.78,7.48-4.17,13.23-4.17c1.16,0,2.05,0.02,2.68,0.07v12.1c-0.39-0.05-0.92-0.07-1.59-0.07c-1.55,0-2.68,0.35-3.41,1.05
		c-0.72,0.7-1.14,1.82-1.23,3.37h6.38V296.2z"/>
	<path class="st1" d="M610.61,307.58h-26.89c0.14,2.22,0.76,3.88,1.85,4.96c1.09,1.09,2.48,1.63,4.17,1.63
		c2.37,0,4.06-1.06,5.07-3.19h15.15c-0.63,2.8-1.85,5.3-3.66,7.5c-1.81,2.2-4.09,3.93-6.85,5.18c-2.75,1.26-5.8,1.88-9.13,1.88
		c-4.01,0-7.57-0.85-10.69-2.54c-3.12-1.69-5.56-4.11-7.32-7.25c-1.76-3.14-2.65-6.84-2.65-11.09c0-4.25,0.87-7.94,2.61-11.05
		s4.17-5.52,7.28-7.21c3.12-1.69,6.71-2.54,10.76-2.54c4.01,0,7.56,0.82,10.65,2.46c3.09,1.64,5.51,4,7.25,7.07
		c1.74,3.07,2.61,6.68,2.61,10.84C610.83,305.36,610.75,306.47,610.61,307.58z M596.33,300.69c0-1.74-0.58-3.1-1.74-4.1
		c-1.16-0.99-2.61-1.49-4.35-1.49c-1.74,0-3.17,0.47-4.28,1.41c-1.11,0.94-1.84,2.33-2.17,4.17H596.33z"/>
	<path class="st1" d="M616.92,293.66c1.74-3.14,4.17-5.56,7.28-7.25c3.12-1.69,6.68-2.54,10.69-2.54c5.17,0,9.52,1.41,13.05,4.24
		s5.8,6.78,6.81,11.85h-15.08c-0.87-2.66-2.56-3.99-5.07-3.99c-1.79,0-3.2,0.74-4.24,2.21c-1.04,1.47-1.56,3.64-1.56,6.49
		c0,2.85,0.52,5.03,1.56,6.52c1.04,1.5,2.45,2.25,4.24,2.25c2.56,0,4.25-1.33,5.07-3.99h15.08c-1.01,5.03-3.29,8.96-6.81,11.81
		c-3.53,2.85-7.88,4.28-13.05,4.28c-4.01,0-7.57-0.85-10.69-2.54c-3.12-1.69-5.54-4.11-7.28-7.25c-1.74-3.14-2.61-6.84-2.61-11.09
		C614.31,300.47,615.18,296.8,616.92,293.66z"/>
	<path class="st1" d="M684.61,312.94v12.1h-6.16c-10.39,0-15.58-5.15-15.58-15.44V296.2h-5v-11.81h5v-9.86h14.28v9.86h7.39v11.81
		h-7.39v13.63c0,1.11,0.25,1.91,0.76,2.39c0.51,0.48,1.36,0.72,2.57,0.72H684.61z"/>
</g>
</svg>
